<?xml version="1.0" encoding="utf-8"?>
<!-- Generator: Adobe Illustrator 27.5.0, SVG Export Plug-In . SVG Version: 6.00 Build 0)  -->
<svg version="1.1" xmlns="http://www.w3.org/2000/svg" xmlns:xlink="http://www.w3.org/1999/xlink" x="0px" y="0px"
	 viewBox="0 0 500 500" style="enable-background:new 0 0 500 500;" xml:space="preserve">
<g id="BACKGROUND">
	<rect style="opacity:0.15;fill:#FBF0E1;" width="500" height="500"/>
</g>
<g id="OBJECT">
	<g>

			<text transform="matrix(1 0 0 1 81.9905 333.3216)" style="fill:#4242C6; font-family:'Raleway-ExtraBold'; font-size:46.6761px;">ADNEGS</text>

			<text transform="matrix(1 0 0 1 170.5173 372.6593)" style="fill:#1D9687; font-family:'Raleway-SemiBold'; font-size:27.5124px;">Your All in one Library</text>
		<g>
			<g>
				<g>
					<path style="fill:#6562E8;" d="M336.687,191.42l-75.219,75.219c-5.85,5.85-15.334,5.85-21.183,0l-20.349-20.349
						c-6.463-6.463-6.463-16.942,0-23.406l74.108-74.108c3.162-3.162,8.289-3.162,11.451,0l17.609,17.608l-1.224,1.365
						c0,0,1.293,4.544,4.988,8.047c4.518,4.282,7.671,4.706,7.671,4.706l1.459-1.224l0.69,0.691
						C339.849,183.131,339.849,188.258,336.687,191.42z"/>
					<path style="fill:#4646D3;" d="M232.921,242.597l-15.853-15.853c-3.377,6.268-2.426,14.252,2.868,19.546l16.293,16.293
						l4.057,4.057c5.85,5.849,15.333,5.849,21.183,0l75.219-75.219c3.162-3.162,3.162-8.289,0-11.451l-0.766-0.75l-1.306,1.376
						c0,0-3.512-0.612-7.794-4.941c-4.096-4.141-4.941-7.953-4.941-7.953l1.271-1.223l-2.837-2.882l-78.996,78.997
						C238.998,244.912,235.241,244.917,232.921,242.597z"/>
					<path style="fill:#FDF2DC;" d="M244.65,244.763c-3.539,3.539-3.539,9.277,0,12.816h0c3.539,3.539,9.277,3.539,12.816,0
						l77.136-76.968c0,0-3.78-0.863-7.827-4.91c-3.859-3.859-4.988-7.906-4.988-7.906L244.65,244.763z"/>
					<path style="fill:#2C2CC6;" d="M261.468,266.639l75.219-75.219c1.14-1.14,1.863-2.537,2.181-4.004l-80.007,79.54
						c-6.965,5.835-18.576-0.317-18.576-0.317C246.135,272.488,255.619,272.488,261.468,266.639z"/>
					<polygon style="fill:#DBCDB0;" points="246.921,259.232 246.921,259.232 246.92,259.232 					"/>
					<path style="fill:#DBCDB0;" d="M245.832,258.564c-0.066-0.047-0.132-0.096-0.197-0.145
						C245.701,258.468,245.766,258.517,245.832,258.564z"/>
					<path style="fill:#FDF2DC;" d="M246.92,259.232c-0.375-0.193-0.736-0.42-1.087-0.667
						C246.183,258.813,246.545,259.039,246.92,259.232z"/>
					<path style="fill:#FDF2DC;" d="M245.635,258.419c-0.342-0.255-0.675-0.53-0.985-0.841
						C244.961,257.89,245.293,258.163,245.635,258.419z"/>
					<path style="opacity:0.55;fill:#CABD9A;" d="M326.844,175.701c-3.859-3.859-4.941-8.024-4.941-8.024l-77.254,77.085
						c-3.539,3.539-3.539,9.277,0,12.816h0c0.311,0.311,0.643,0.585,0.985,0.841c0.066,0.049,0.131,0.098,0.197,0.145
						c0.351,0.248,0.712,0.475,1.087,0.667c0,0,0,0,0.001,0l81.799-81.799C328.088,176.932,327.506,176.363,326.844,175.701z"/>
					<path style="opacity:0.49;fill:#B2A383;" d="M244.766,248.297c0.098,0.098,0.226,0.146,0.354,0.146
						c0.128,0,0.256-0.049,0.354-0.146l77.581-77.581c-0.179-0.332-0.341-0.648-0.478-0.936l-77.81,77.81
						C244.571,247.786,244.571,248.102,244.766,248.297z"/>
					<path style="opacity:0.49;fill:#B2A383;" d="M243.872,252.721c0.098,0.098,0.226,0.146,0.354,0.146s0.256-0.049,0.354-0.146
						l79.846-79.804c-0.204-0.287-0.394-0.569-0.57-0.844l-79.982,79.941C243.677,252.209,243.677,252.526,243.872,252.721z"/>
					<path style="opacity:0.49;fill:#B2A383;" d="M248.436,251.968c0.098,0.098,0.226,0.146,0.354,0.146
						c0.128,0,0.256-0.049,0.354-0.146l76.964-76.965c-0.231-0.252-0.451-0.504-0.66-0.754l-77.012,77.012
						C248.241,251.456,248.241,251.773,248.436,251.968z"/>
					<path style="opacity:0.49;fill:#B2A383;" d="M247.402,256.674c0.097,0.097,0.225,0.146,0.353,0.146s0.256-0.049,0.354-0.147
						l79.818-79.901c-0.244-0.213-0.491-0.438-0.739-0.675l-79.787,79.87C247.206,256.163,247.206,256.479,247.402,256.674z"/>
					<path style="opacity:0.49;fill:#B2A383;" d="M252.438,255.97c0.097,0.096,0.225,0.144,0.352,0.144
						c0.129,0,0.258-0.049,0.355-0.148l77.021-77.478c-0.27-0.179-0.547-0.374-0.83-0.582l-76.902,77.358
						C252.24,255.459,252.242,255.776,252.438,255.97z"/>
					<path style="opacity:0.49;fill:#B2A383;" d="M254.178,257.002c-0.195,0.195-0.195,0.512,0,0.707
						c0.098,0.098,0.226,0.146,0.354,0.146c0.128,0,0.256-0.049,0.354-0.146l77.805-77.805c-0.289-0.132-0.607-0.29-0.944-0.47
						L254.178,257.002z"/>
				</g>
				<g>
					<path style="fill:#FFCE55;" d="M264.525,236.517c0,0-2.909,2.909-5.727,5.753c-2.693,2.718-5.302,5.377-5.204,5.377
						l19.167,19.167l0.874-9.708l0.025-0.275l10.033-1.148L264.525,236.517z"/>
					<path style="fill:#FFB229;" d="M253.593,247.648l19.167,19.167l0.874-9.708l-14.836-14.836
						C256.105,244.989,253.496,247.648,253.593,247.648z"/>
				</g>
			</g>
			<g>
				<path style="fill:#239B8C;" d="M279.062,199.032l-42.976,42.976c-5.85,5.85-15.334,5.85-21.183,0l-20.349-20.349
					c-6.463-6.463-6.463-16.942,0-23.406l41.865-41.865c3.162-3.162,8.289-3.162,11.451,0l17.609,17.608l-1.223,1.365
					c0,0,1.292,4.544,4.988,8.047c4.518,4.282,7.671,4.706,7.671,4.706l1.459-1.224l0.69,0.691
					C282.224,190.743,282.224,195.87,279.062,199.032z"/>
				<path style="fill:#1E7068;" d="M207.539,217.966l-15.853-15.853c-3.377,6.268-2.426,14.252,2.868,19.546l16.293,16.293
					l4.057,4.057c5.85,5.85,15.333,5.85,21.183,0l42.976-42.976c3.162-3.162,3.162-8.289,0-11.451l-0.766-0.75l-1.306,1.376
					c0,0-3.512-0.612-7.794-4.941c-4.096-4.141-4.941-7.953-4.941-7.953l1.27-1.224l-2.837-2.882l-46.754,46.754
					C213.615,220.281,209.858,220.286,207.539,217.966z"/>
				<path style="fill:#FDF2DC;" d="M219.267,220.132c-3.539,3.539-3.539,9.277,0,12.816h0c3.539,3.539,9.277,3.539,12.816,0
					l44.893-44.725c0,0-3.78-0.863-7.827-4.91c-3.859-3.859-4.988-7.906-4.988-7.906L219.267,220.132z"/>
				<path style="fill:#155951;" d="M236.085,242.008l42.976-42.976c1.14-1.14,1.863-2.537,2.181-4.004l-47.765,47.297
					c-6.965,5.835-18.576-0.317-18.576-0.317C220.752,247.857,230.236,247.857,236.085,242.008z"/>
				<polygon style="fill:#DBCDB0;" points="221.538,234.601 221.538,234.601 221.537,234.601 				"/>
				<path style="fill:#DBCDB0;" d="M220.45,233.933c-0.066-0.047-0.132-0.096-0.197-0.145
					C220.318,233.837,220.383,233.886,220.45,233.933z"/>
				<path style="fill:#FDF2DC;" d="M221.537,234.601c-0.375-0.193-0.736-0.42-1.087-0.667
					C220.8,234.182,221.162,234.408,221.537,234.601z"/>
				<path style="fill:#FDF2DC;" d="M220.252,233.788c-0.342-0.255-0.675-0.53-0.985-0.841
					C219.578,233.258,219.911,233.532,220.252,233.788z"/>
				<path style="opacity:0.55;fill:#CABD9A;" d="M269.219,183.313c-3.859-3.859-4.941-8.023-4.941-8.023l-45.011,44.842
					c-3.539,3.539-3.539,9.277,0,12.816h0c0.311,0.311,0.643,0.585,0.985,0.841c0.066,0.049,0.131,0.098,0.197,0.145
					c0.351,0.247,0.712,0.475,1.087,0.667c0,0,0,0,0.001,0l49.556-49.556C270.462,184.543,269.88,183.975,269.219,183.313z"/>
				<path style="opacity:0.49;fill:#B2A383;" d="M219.383,223.666c0.098,0.098,0.226,0.146,0.354,0.146
					c0.128,0,0.256-0.049,0.354-0.146l45.338-45.338c-0.18-0.332-0.341-0.648-0.478-0.936l-45.567,45.567
					C219.188,223.154,219.188,223.471,219.383,223.666z"/>
				<path style="opacity:0.49;fill:#B2A383;" d="M218.489,228.09c0.098,0.098,0.226,0.146,0.354,0.146s0.256-0.049,0.354-0.146
					l47.603-47.561c-0.204-0.287-0.394-0.569-0.57-0.844l-47.74,47.698C218.294,227.578,218.294,227.895,218.489,228.09z"/>
				<path style="opacity:0.49;fill:#B2A383;" d="M223.054,227.337c0.098,0.098,0.226,0.146,0.354,0.146
					c0.128,0,0.256-0.049,0.354-0.146l44.722-44.722c-0.231-0.252-0.451-0.504-0.66-0.754l-44.769,44.769
					C222.858,226.825,222.858,227.142,223.054,227.337z"/>
				<path style="opacity:0.49;fill:#B2A383;" d="M222.019,232.043c0.097,0.097,0.225,0.146,0.353,0.146s0.256-0.049,0.354-0.147
					l47.575-47.659c-0.245-0.213-0.491-0.438-0.739-0.675l-47.544,47.627C221.823,231.531,221.823,231.848,222.019,232.043z"/>
				<path style="opacity:0.49;fill:#B2A383;" d="M227.056,231.339c0.097,0.096,0.225,0.145,0.352,0.145
					c0.129,0,0.258-0.049,0.355-0.148l44.779-45.236c-0.27-0.179-0.547-0.374-0.83-0.582l-44.659,45.115
					C226.857,230.828,226.859,231.145,227.056,231.339z"/>
				<path style="opacity:0.49;fill:#B2A383;" d="M228.795,232.371c-0.195,0.195-0.195,0.512,0,0.707
					c0.098,0.098,0.226,0.146,0.354,0.146c0.128,0,0.256-0.049,0.354-0.146l45.562-45.562c-0.289-0.132-0.607-0.29-0.944-0.47
					L228.795,232.371z"/>
			</g>
			<g>
				<path style="fill:#FF5850;" d="M243.485,163.455l-42.976,42.976c-5.85,5.85-15.334,5.85-21.183,0l-20.349-20.349
					c-6.463-6.463-6.463-16.942,0-23.406l41.865-41.865c3.162-3.162,8.289-3.162,11.451,0l17.609,17.608l-1.224,1.365
					c0,0,1.293,4.544,4.988,8.047c4.518,4.282,7.671,4.706,7.671,4.706l1.459-1.224l0.69,0.691
					C246.647,155.167,246.647,160.293,243.485,163.455z"/>
				<path style="fill:#ED482E;" d="M171.962,182.389l-15.853-15.853c-3.377,6.268-2.426,14.252,2.868,19.546l16.293,16.293
					l4.057,4.057c5.85,5.85,15.333,5.85,21.183,0l42.976-42.976c3.162-3.162,3.162-8.289,0-11.451l-0.766-0.75l-1.306,1.376
					c0,0-3.512-0.612-7.794-4.941c-4.096-4.141-4.941-7.953-4.941-7.953l1.271-1.224l-2.837-2.882l-46.754,46.754
					C178.038,184.704,174.282,184.709,171.962,182.389z"/>
				<path style="fill:#FDF2DC;" d="M183.69,184.556c-3.539,3.539-3.539,9.277,0,12.816h0c3.539,3.539,9.277,3.539,12.816,0
					l44.893-44.725c0,0-3.78-0.863-7.827-4.91c-3.859-3.859-4.988-7.906-4.988-7.906L183.69,184.556z"/>
				<path style="fill:#BC422E;" d="M200.509,206.432l42.976-42.976c1.14-1.14,1.863-2.537,2.181-4.004l-47.765,47.297
					c-6.965,5.835-18.576-0.317-18.576-0.317C185.175,212.281,194.659,212.281,200.509,206.432z"/>
				<polygon style="fill:#DBCDB0;" points="185.961,199.025 185.961,199.025 185.961,199.024 				"/>
				<path style="fill:#DBCDB0;" d="M184.873,198.357c-0.066-0.047-0.132-0.096-0.197-0.145
					C184.742,198.261,184.807,198.31,184.873,198.357z"/>
				<path style="fill:#FDF2DC;" d="M185.961,199.024c-0.375-0.193-0.736-0.42-1.087-0.667
					C185.224,198.605,185.585,198.831,185.961,199.024z"/>
				<path style="fill:#FDF2DC;" d="M184.676,198.212c-0.342-0.255-0.675-0.53-0.985-0.841
					C184.001,197.682,184.334,197.956,184.676,198.212z"/>
				<path style="opacity:0.55;fill:#CABD9A;" d="M233.643,147.737c-3.859-3.859-4.941-8.023-4.941-8.023l-45.011,44.842
					c-3.539,3.539-3.539,9.277,0,12.816h0c0.311,0.311,0.643,0.585,0.985,0.841c0.066,0.049,0.131,0.098,0.197,0.145
					c0.351,0.247,0.712,0.475,1.087,0.667c0,0,0,0,0.001,0l49.556-49.556C234.886,148.967,234.304,148.398,233.643,147.737z"/>
				<path style="opacity:0.49;fill:#B2A383;" d="M183.807,188.09c0.098,0.098,0.226,0.146,0.354,0.146
					c0.128,0,0.256-0.049,0.354-0.146l45.338-45.338c-0.18-0.332-0.341-0.648-0.478-0.936l-45.567,45.567
					C183.611,187.578,183.611,187.895,183.807,188.09z"/>
				<path style="opacity:0.49;fill:#B2A383;" d="M182.913,192.514c0.098,0.098,0.226,0.146,0.354,0.146s0.256-0.049,0.354-0.146
					l47.603-47.561c-0.204-0.287-0.394-0.569-0.57-0.844l-47.74,47.698C182.717,192.001,182.717,192.318,182.913,192.514z"/>
				<path style="opacity:0.49;fill:#B2A383;" d="M187.477,191.761c0.098,0.098,0.225,0.146,0.354,0.146
					c0.128,0,0.256-0.049,0.354-0.146l44.722-44.722c-0.231-0.252-0.451-0.504-0.66-0.754l-44.769,44.769
					C187.282,191.249,187.282,191.565,187.477,191.761z"/>
				<path style="opacity:0.49;fill:#B2A383;" d="M186.443,196.467c0.097,0.097,0.225,0.146,0.353,0.146s0.256-0.049,0.354-0.147
					l47.575-47.659c-0.245-0.213-0.491-0.438-0.739-0.675l-47.544,47.627C186.247,195.955,186.247,196.271,186.443,196.467z"/>
				<path style="opacity:0.49;fill:#B2A383;" d="M191.479,195.763c0.097,0.096,0.225,0.145,0.352,0.145
					c0.129,0,0.258-0.049,0.355-0.148l44.779-45.236c-0.27-0.179-0.547-0.374-0.83-0.582l-44.659,45.115
					C191.281,195.252,191.283,195.568,191.479,195.763z"/>
				<path style="opacity:0.49;fill:#B2A383;" d="M193.218,196.795c-0.195,0.195-0.195,0.512,0,0.707
					c0.098,0.098,0.226,0.146,0.354,0.146c0.128,0,0.256-0.049,0.353-0.146l45.562-45.562c-0.289-0.132-0.607-0.29-0.944-0.47
					L193.218,196.795z"/>
			</g>
		</g>
	</g>
</g>
</svg>
