<?xml version="1.0" encoding="utf-8"?>
<!-- Generator: Adobe Illustrator 27.5.0, SVG Export Plug-In . SVG Version: 6.00 Build 0)  -->
<svg version="1.1" xmlns="http://www.w3.org/2000/svg" xmlns:xlink="http://www.w3.org/1999/xlink" x="0px" y="0px"
	 viewBox="0 0 500 500" style="enable-background:new 0 0 500 500;" xml:space="preserve">
<g id="BACKGROUND">
	<rect style="fill:#F9FBFC;" width="500" height="500"/>
</g>
<g id="OBJECTS">
	<g>
		<linearGradient id="SVGID_1_" gradientUnits="userSpaceOnUse" x1="221.2628" y1="291.8293" x2="221.2628" y2="257.299">
			<stop  offset="0" style="stop-color:#345C54"/>
			<stop  offset="1" style="stop-color:#1B2D41"/>
		</linearGradient>
		<path style="fill:url(#SVGID_1_);" d="M296.277,299.029h-124.92c-13.867,0-25.109-11.242-25.109-25.109v0
			c0-13.867,11.242-25.109,25.109-25.109h124.92V299.029z"/>

			<linearGradient id="SVGID_00000038379886170832734190000011868375140860535453_" gradientUnits="userSpaceOnUse" x1="253.7975" y1="232.8976" x2="276.632" y2="292.0899">
			<stop  offset="0" style="stop-color:#345C54"/>
			<stop  offset="1" style="stop-color:#1B2D41"/>
		</linearGradient>
		<path style="fill:url(#SVGID_00000038379886170832734190000011868375140860535453_);" d="M348.304,293.581v-39.323h5.448v-5.448
			H202.727c-13.867,0-25.109,11.242-25.109,25.109v0c0,13.867,11.242,25.109,25.109,25.109h151.024v-5.448H348.304z"/>

			<linearGradient id="SVGID_00000029043624292795919320000010340504926053301406_" gradientUnits="userSpaceOnUse" x1="265.6847" y1="283.1832" x2="265.6847" y2="256.2129">
			<stop  offset="0" style="stop-color:#E2DEDE"/>
			<stop  offset="1" style="stop-color:#A3A6AC"/>
		</linearGradient>
		<path style="fill:url(#SVGID_00000029043624292795919320000010340504926053301406_);" d="M202.727,293.581
			c-10.841,0-19.661-8.82-19.661-19.661s8.82-19.661,19.661-19.661h145.577v39.323H202.727z"/>
		<g>
			<g>
				<rect x="192.212" y="263.118" style="fill:#E1E7EA;" width="156.096" height="2.497"/>
			</g>
			<g>
				<rect x="188.88" y="269.491" style="fill:#E1E7EA;" width="159.428" height="2.497"/>
			</g>
			<g>
				<rect x="188.88" y="275.856" style="fill:#E1E7EA;" width="159.428" height="2.497"/>
			</g>
			<g>
				<rect x="192.203" y="282.22" style="fill:#E1E7EA;" width="156.105" height="2.497"/>
			</g>
		</g>
	</g>
	<g>

			<linearGradient id="SVGID_00000081606532204889678610000011921047631983266724_" gradientUnits="userSpaceOnUse" x1="221.2628" y1="153.0489" x2="221.2628" y2="193.9635">
			<stop  offset="0" style="stop-color:#FF8F78"/>
			<stop  offset="1" style="stop-color:#D45E5E"/>
		</linearGradient>
		<path style="fill:url(#SVGID_00000081606532204889678610000011921047631983266724_);" d="M296.277,199.081h-124.92
			c-13.867,0-25.109-11.242-25.109-25.109l0,0c0-13.867,11.242-25.109,25.109-25.109h124.92V199.081z"/>

			<linearGradient id="SVGID_00000093158342697566276840000006732496762366871700_" gradientUnits="userSpaceOnUse" x1="244.3676" y1="137.745" x2="303.7816" y2="215.5596">
			<stop  offset="0" style="stop-color:#FF8F78"/>
			<stop  offset="1" style="stop-color:#D45E5E"/>
		</linearGradient>
		<path style="fill:url(#SVGID_00000093158342697566276840000006732496762366871700_);" d="M348.304,193.634v-39.323h5.448v-5.448
			H202.727c-13.867,0-25.109,11.242-25.109,25.109v0c0,13.867,11.242,25.109,25.109,25.109h151.024v-5.448H348.304z"/>

			<linearGradient id="SVGID_00000135684878510985196500000015475667711632000183_" gradientUnits="userSpaceOnUse" x1="265.6847" y1="183.8643" x2="265.6847" y2="157.5863">
			<stop  offset="0" style="stop-color:#E2DEDE"/>
			<stop  offset="1" style="stop-color:#A3A6AC"/>
		</linearGradient>
		<path style="fill:url(#SVGID_00000135684878510985196500000015475667711632000183_);" d="M202.727,193.634
			c-10.841,0-19.661-8.82-19.661-19.661s8.82-19.661,19.661-19.661h145.577v39.323H202.727z"/>
		<g>
			<g>
				<rect x="192.212" y="163.171" style="fill:#E1E7EA;" width="156.096" height="2.497"/>
			</g>
			<g>
				<rect x="188.88" y="169.544" style="fill:#E1E7EA;" width="159.428" height="2.497"/>
			</g>
			<g>
				<rect x="188.88" y="175.909" style="fill:#E1E7EA;" width="159.428" height="2.497"/>
			</g>
			<g>
				<rect x="192.203" y="182.273" style="fill:#E1E7EA;" width="156.105" height="2.497"/>
			</g>
		</g>
	</g>
	<g>

			<linearGradient id="SVGID_00000070837292480361910680000016366630719783624619_" gradientUnits="userSpaceOnUse" x1="278.7366" y1="242.6132" x2="278.7366" y2="204.4837">
			<stop  offset="0" style="stop-color:#E1F244"/>
			<stop  offset="1" style="stop-color:#8E9A1A"/>
		</linearGradient>
		<path style="fill:url(#SVGID_00000070837292480361910680000016366630719783624619_);" d="M203.722,248.811h124.92
			c13.867,0,25.109-11.242,25.109-25.109l0,0c0-13.867-11.242-25.109-25.109-25.109h-124.92V248.811z"/>

			<linearGradient id="SVGID_00000126293383529363803070000015812795331044987017_" gradientUnits="userSpaceOnUse" x1="219.9523" y1="138.2037" x2="243.23" y2="295.6063">
			<stop  offset="0" style="stop-color:#E1F244"/>
			<stop  offset="1" style="stop-color:#8E9A1A"/>
		</linearGradient>
		<path style="fill:url(#SVGID_00000126293383529363803070000015812795331044987017_);" d="M151.696,243.363V204.04h-5.448v-5.447
			h151.024c13.867,0,25.109,11.242,25.109,25.109l0,0c0,13.867-11.242,25.109-25.109,25.109H146.248v-5.448H151.696z"/>

			<linearGradient id="SVGID_00000176013747445965430640000006414243287243672489_" gradientUnits="userSpaceOnUse" x1="234.3148" y1="233.5237" x2="234.3148" y2="206.2554">
			<stop  offset="0" style="stop-color:#E2DEDE"/>
			<stop  offset="1" style="stop-color:#A3A6AC"/>
		</linearGradient>
		<path style="fill:url(#SVGID_00000176013747445965430640000006414243287243672489_);" d="M297.272,243.363
			c10.841,0,19.661-8.82,19.661-19.661c0-10.841-8.82-19.661-19.661-19.661H151.696v39.323H297.272z"/>
		<g>
			<g>
				<rect x="151.692" y="212.9" style="fill:#E1E7EA;" width="156.096" height="2.497"/>
			</g>
			<g>
				<rect x="151.692" y="219.273" style="fill:#E1E7EA;" width="159.428" height="2.497"/>
			</g>
			<g>
				<rect x="151.692" y="225.638" style="fill:#E1E7EA;" width="159.428" height="2.497"/>
			</g>
			<g>
				<rect x="151.692" y="232.003" style="fill:#E1E7EA;" width="156.105" height="2.497"/>
			</g>
		</g>
	</g>
</g>
<g id="TEXTS">

		<text transform="matrix(1 0 0 1 97.8652 351.6045)" style="fill:#414042; font-family:'ProzaLibre-ExtraBold'; font-size:44.314px;">ADNEGS LIBRARY</text>
	<text transform="matrix(1 0 0 1 163.6913 383.5254)" style="fill:#A7A9AC; font-family:'Dosis-SemiBold'; font-size:20.9059px;">BOOKS COLLECTION</text>
</g>
</svg>
